<svg width="72" height="72" viewBox="0 0 72 72" fill="none" xmlns="http://www.w3.org/2000/svg">
<path d="M26.712 49.5H37.566C37.524 49.995 37.5 50.496 37.5 51C37.5 54.603 38.871 58.083 41.316 61.464C39.696 64.341 37.845 65.997 36 65.997C32.409 65.997 28.8 59.715 26.886 50.385L26.712 49.503V49.5Z" fill="#D74A88"/>
<path d="M26.022 45.0001H38.622C40.0979 41.2339 42.9013 38.1382 46.503 36.2971V36.0031C46.503 33.9451 46.425 31.9381 46.275 30.0031H25.725L25.626 31.4671C25.3653 35.981 25.4978 40.5091 26.022 45.0001Z" fill="#D74A88"/>
<path d="M54.0001 34.5C58.6291 34.5 62.8111 36.405 65.8051 39.474C66.1704 36.3146 66.0358 33.1175 65.4061 30H50.7961L50.9101 31.971C50.9551 32.895 50.9821 33.831 50.9971 34.773C51.9691 34.593 52.9771 34.5 54.0001 34.5Z" fill="#D74A88"/>
<path d="M9.19836 49.5031H22.1164C23.2084 55.7491 25.0654 61.0651 27.4924 64.7821C19.865 62.5184 13.4447 57.3257 9.63636 50.3401L9.19836 49.5031Z" fill="#D74A88"/>
<path d="M6.5972 30H21.2072C20.8933 34.4158 20.9264 38.8494 21.3062 43.26L21.4772 45H7.3682C5.84856 40.1454 5.58229 34.9852 6.5942 30H6.5972Z" fill="#D74A88"/>
<path d="M44.8323 7.7311L44.5083 7.2211C48.9674 8.54455 53.0588 10.884 56.461 14.0557C59.8633 17.2273 62.4837 21.1447 64.1163 25.5001H50.3463C49.3983 18.2521 47.4753 12.0241 44.8323 7.7311Z" fill="#D74A88"/>
<path d="M27.1263 7.3321L27.4923 7.2211C24.8493 11.2711 22.8843 17.2081 21.8403 24.1801L21.6543 25.5001H7.89026C9.49971 21.2051 12.0699 17.3349 15.4044 14.1855C18.7389 11.0361 22.7494 8.6909 27.1293 7.3291L27.1263 7.3321Z" fill="#D74A88"/>
<path d="M36 6.00604C39.957 6.00604 43.938 13.632 45.642 24.555L45.783 25.5H26.217C27.84 14.073 31.932 6.00604 36 6.00604Z" fill="#D74A88"/>
<path d="M67.5 51C67.5 47.4196 66.0777 43.9858 63.5459 41.4541C61.0142 38.9223 57.5804 37.5 54 37.5C50.4196 37.5 46.9858 38.9223 44.4541 41.4541C41.9223 43.9858 40.5 47.4196 40.5 51C40.5 56.589 44.76 62.445 53.1 68.7C53.3596 68.8947 53.6754 69 54 69C54.3246 69 54.6404 68.8947 54.9 68.7C63.24 62.445 67.5 56.589 67.5 51ZM49.5 51C49.5 49.8065 49.9741 48.6619 50.818 47.818C51.6619 46.9741 52.8065 46.5 54 46.5C55.1935 46.5 56.3381 46.9741 57.182 47.818C58.0259 48.6619 58.5 49.8065 58.5 51C58.5 52.1935 58.0259 53.3381 57.182 54.182C56.3381 55.0259 55.1935 55.5 54 55.5C52.8065 55.5 51.6619 55.0259 50.818 54.182C49.9741 53.3381 49.5 52.1935 49.5 51Z" fill="#D74A88"/>
</svg>
