<svg width="24" height="24" viewBox="0 0 24 24" fill="none" xmlns="http://www.w3.org/2000/svg">
<path d="M20.6614 19.3764C10.9463 24 4.91692 20.1316 1.05736 17.782C0.818527 17.6339 0.412602 17.8166 0.764798 18.2211C2.05061 19.7802 6.2645 23.538 11.7648 23.538C17.269 23.538 20.5434 20.5347 20.953 20.0108C21.3599 19.4914 21.0725 19.2048 20.6613 19.3764H20.6614ZM23.3899 17.8696C23.129 17.5299 21.8035 17.4665 20.9693 17.569C20.1338 17.6685 18.8798 18.1791 18.9888 18.4857C19.0447 18.6006 19.1589 18.5491 19.7329 18.4975C20.3084 18.44 21.9206 18.2366 22.2566 18.6757C22.5941 19.1179 21.7424 21.2245 21.5868 21.5642C21.4365 21.9039 21.6442 21.9915 21.9265 21.7653C22.205 21.5391 22.709 20.9533 23.0473 20.1244C23.3832 19.2909 23.5881 18.1283 23.3898 17.8696H23.3899Z" fill="#FF9900"/>
<path fill-rule="evenodd" clip-rule="evenodd" d="M14.1292 9.94199C14.1292 11.1551 14.1598 12.1669 13.5466 13.2442C13.0517 14.1202 12.2678 14.6589 11.3918 14.6589C10.1961 14.6589 9.49976 13.7479 9.49976 12.4034C9.49976 9.74923 11.8779 9.26751 14.1292 9.26751V9.94199ZM17.2694 17.5321C17.0635 17.716 16.7657 17.7292 16.5336 17.6065C15.5 16.7481 15.316 16.3496 14.7467 15.5305C13.0386 17.2737 11.8298 17.7948 9.61368 17.7948C6.9946 17.7948 4.95361 16.1787 4.95361 12.9421C4.95361 10.415 6.32455 8.69375 8.2734 7.85291C9.96403 7.10826 12.3247 6.97689 14.1292 6.77112V6.36815C14.1292 5.62793 14.186 4.75201 13.7525 4.11261C13.3714 3.53885 12.6444 3.30233 12.0049 3.30233C10.8181 3.30233 9.75816 3.91108 9.49976 5.17243C9.44714 5.45281 9.24136 5.72875 8.96108 5.74186L5.93902 5.41782C5.68506 5.36076 5.40478 5.15499 5.47485 4.76512C6.17121 1.10376 9.47779 0 12.4385 0C13.9539 0 15.9335 0.402971 17.1292 1.55049C18.6446 2.96509 18.5 4.85273 18.5 6.90683V11.7596C18.5 13.218 19.1044 13.8574 19.6738 14.6458C19.8752 14.9261 19.919 15.2634 19.665 15.4735C19.0299 16.0035 17.8999 16.989 17.2781 17.5408L17.2693 17.5321" fill="#0F1745"/>
<path d="M20.6614 19.3764C10.9463 24 4.91692 20.1316 1.05736 17.782C0.818527 17.6339 0.412602 17.8166 0.764798 18.2211C2.05061 19.7802 6.2645 23.538 11.7648 23.538C17.269 23.538 20.5434 20.5347 20.953 20.0108C21.3599 19.4914 21.0725 19.2048 20.6613 19.3764H20.6614ZM23.3899 17.8696C23.129 17.5299 21.8035 17.4665 20.9693 17.569C20.1338 17.6685 18.8798 18.1791 18.9888 18.4857C19.0447 18.6006 19.1589 18.5491 19.7329 18.4975C20.3084 18.44 21.9206 18.2366 22.2566 18.6757C22.5941 19.1179 21.7424 21.2245 21.5868 21.5642C21.4365 21.9039 21.6442 21.9915 21.9265 21.7653C22.205 21.5391 22.709 20.9533 23.0473 20.1244C23.3832 19.2909 23.5881 18.1283 23.3898 17.8696H23.3899Z" fill="#FF9900"/>
<path fill-rule="evenodd" clip-rule="evenodd" d="M14.1292 9.94199C14.1292 11.1551 14.1598 12.1669 13.5466 13.2442C13.0517 14.1202 12.2678 14.6589 11.3918 14.6589C10.1961 14.6589 9.49976 13.7479 9.49976 12.4034C9.49976 9.74923 11.8779 9.26751 14.1292 9.26751V9.94199ZM17.2694 17.5321C17.0635 17.716 16.7657 17.7292 16.5336 17.6065C15.5 16.7481 15.316 16.3496 14.7467 15.5305C13.0386 17.2737 11.8298 17.7948 9.61368 17.7948C6.9946 17.7948 4.95361 16.1787 4.95361 12.9421C4.95361 10.415 6.32455 8.69375 8.2734 7.85291C9.96403 7.10826 12.3247 6.97689 14.1292 6.77112V6.36815C14.1292 5.62793 14.186 4.75201 13.7525 4.11261C13.3714 3.53885 12.6444 3.30233 12.0049 3.30233C10.8181 3.30233 9.75816 3.91108 9.49976 5.17243C9.44714 5.45281 9.24136 5.72875 8.96108 5.74186L5.93902 5.41782C5.68506 5.36076 5.40478 5.15499 5.47485 4.76512C6.17121 1.10376 9.47779 0 12.4385 0C13.9539 0 15.9335 0.402971 17.1292 1.55049C18.6446 2.96509 18.5 4.85273 18.5 6.90683V11.7596C18.5 13.218 19.1044 13.8574 19.6738 14.6458C19.8752 14.9261 19.919 15.2634 19.665 15.4735C19.0299 16.0035 17.8999 16.989 17.2781 17.5408L17.2693 17.5321" fill="#0F1745"/>
</svg>
