<svg width="29" height="24" viewBox="0 0 29 24" fill="none" xmlns="http://www.w3.org/2000/svg">
<path d="M24.0566 4.3218C22.2338 3.94893 19.2948 3.44466 18.4736 5.17932C15.9642 9.57348 14.5234 14.1724 13.439 16.1456C13.5529 16.2121 18.5512 19.1439 18.9048 19.3173C20.0285 19.8686 21.9046 19.6205 22.7038 18.1633C24.9209 14.1209 24.3573 15.1733 26.713 11.0486C28.2353 8.38303 26.332 4.78718 24.0566 4.3218Z" fill="#EA4335"/>
<path d="M8.28552 22.1608C7.06157 20.7453 6.16372 17.9133 7.23921 16.3272C10.381 10.8257 12.8961 7.49533 14.8742 4.15707C15.923 4.76931 20.1256 7.17923 20.4054 7.42754C21.3444 8.26021 22.1222 9.85127 21.2735 11.2796C18.9191 15.2419 17.953 17.0351 15.56 21.2254C14.0374 23.8916 9.81458 23.9292 8.28552 22.1608Z" fill="#FDBD00"/>
<path d="M19.5551 1.51718C17.1066 0.0707626 15.8481 0.260329 14.5314 0.47381C13.3343 0.776327 11.7156 1.65579 11.0333 2.78564C9.31205 5.63576 7.68172 8.45604 5.56968 12.2779C4.91917 13.455 5.40203 14.9012 6.00235 15.4751C6.40919 15.8642 9.40265 17.5339 9.95498 17.7739C10.7363 18.1135 11.9066 17.8773 12.6126 17.1427C12.8075 16.9398 17.2732 9.1854 18.5308 6.8983C19.0617 5.93317 19.5398 5.39906 20.3336 4.88422C21.8672 4.0707 23.0645 3.96576 24.8984 4.6437C24.8984 4.6437 20.907 2.30482 19.5551 1.51718Z" fill="#2DA94F"/>
<path d="M3.80087 19.7153C1.33746 18.2949 0.870565 17.0983 0.39506 15.8387C0.0557421 14.6395 -0.00017944 12.7826 0.626555 11.6202C2.20763 8.68833 2.19626 8.67347 4.41429 4.91336C5.0974 3.7553 6.57777 3.45499 7.36963 3.69354C7.90634 3.85513 10.8333 5.6411 11.3151 6.00468C11.9968 6.51893 12.3795 7.66167 12.1032 8.64712C12.0268 8.91922 9.22882 13.8835 7.89853 16.1282C7.33702 17.0755 7.11861 17.7611 7.07452 18.7134C7.14433 20.4628 7.65303 21.5635 9.15085 22.8303C9.15085 22.8303 5.15149 20.5051 3.80087 19.7153Z" fill="#297AEC"/>
</svg>
