<svg width="375" height="245" viewBox="0 0 375 245" fill="none" xmlns="http://www.w3.org/2000/svg">
<rect width="375" height="245" fill="white"/>
<ellipse cx="187" cy="62" rx="50" ry="33" fill="#F0F0F0"/>
<path d="M120.482 53.224H124.682L130.85 63.208V53.224H135.098V70H130.922L124.73 59.992V70H120.482V53.224ZM144.032 70.36C141.776 70.36 140 69.832 138.704 68.776C137.424 67.72 136.784 66.224 136.784 64.288C136.784 62.384 137.352 60.88 138.488 59.776C139.64 58.672 141.296 58.12 143.456 58.12C144.832 58.12 146.008 58.384 146.984 58.912C147.976 59.424 148.72 60.136 149.216 61.048C149.728 61.944 149.984 62.96 149.984 64.096V65.656H140.792C140.952 66.296 141.352 66.76 141.992 67.048C142.632 67.336 143.504 67.48 144.608 67.48C145.36 67.48 146.128 67.416 146.912 67.288C147.712 67.16 148.4 66.984 148.976 66.76V69.544C148.384 69.784 147.64 69.976 146.744 70.12C145.864 70.28 144.96 70.36 144.032 70.36ZM146 63.016C145.936 62.392 145.68 61.904 145.232 61.552C144.784 61.2 144.168 61.024 143.384 61.024C142.616 61.024 142.008 61.208 141.56 61.576C141.112 61.928 140.856 62.408 140.792 63.016H146ZM158.422 70.36C156.166 70.36 154.39 69.832 153.094 68.776C151.814 67.72 151.174 66.224 151.174 64.288C151.174 62.384 151.742 60.88 152.878 59.776C154.03 58.672 155.686 58.12 157.846 58.12C159.222 58.12 160.398 58.384 161.374 58.912C162.366 59.424 163.11 60.136 163.606 61.048C164.118 61.944 164.374 62.96 164.374 64.096V65.656H155.182C155.342 66.296 155.742 66.76 156.382 67.048C157.022 67.336 157.894 67.48 158.998 67.48C159.75 67.48 160.518 67.416 161.302 67.288C162.102 67.16 162.79 66.984 163.366 66.76V69.544C162.774 69.784 162.03 69.976 161.134 70.12C160.254 70.28 159.35 70.36 158.422 70.36ZM160.39 63.016C160.326 62.392 160.07 61.904 159.622 61.552C159.174 61.2 158.558 61.024 157.774 61.024C157.006 61.024 156.398 61.208 155.95 61.576C155.502 61.928 155.246 62.408 155.182 63.016H160.39ZM171.685 70.36C170.485 70.36 169.421 70.112 168.493 69.616C167.565 69.104 166.845 68.392 166.333 67.48C165.821 66.552 165.565 65.48 165.565 64.264C165.565 63.064 165.821 62 166.333 61.072C166.845 60.128 167.557 59.4 168.469 58.888C169.397 58.376 170.469 58.12 171.685 58.12C172.485 58.12 173.221 58.232 173.893 58.456C174.565 58.68 175.141 59 175.621 59.416V52.264H179.845V70H175.765V68.848C174.693 69.856 173.333 70.36 171.685 70.36ZM172.789 67.096C173.429 67.096 174.005 66.936 174.517 66.616C175.029 66.28 175.397 65.832 175.621 65.272V63.232C175.397 62.672 175.029 62.232 174.517 61.912C174.005 61.576 173.429 61.408 172.789 61.408C171.925 61.408 171.229 61.664 170.701 62.176C170.173 62.688 169.909 63.384 169.909 64.264C169.909 65.144 170.173 65.84 170.701 66.352C171.229 66.848 171.925 67.096 172.789 67.096ZM190.162 53.224H194.41V59.704H200.986V53.224H205.234V70H200.986V63.232H194.41V70H190.162V53.224ZM214.157 70.36C211.901 70.36 210.125 69.832 208.829 68.776C207.549 67.72 206.909 66.224 206.909 64.288C206.909 62.384 207.477 60.88 208.613 59.776C209.765 58.672 211.421 58.12 213.581 58.12C214.957 58.12 216.133 58.384 217.109 58.912C218.101 59.424 218.845 60.136 219.341 61.048C219.853 61.944 220.109 62.96 220.109 64.096V65.656H210.917C211.077 66.296 211.477 66.76 212.117 67.048C212.757 67.336 213.629 67.48 214.733 67.48C215.485 67.48 216.253 67.416 217.037 67.288C217.837 67.16 218.525 66.984 219.101 66.76V69.544C218.509 69.784 217.765 69.976 216.869 70.12C215.989 70.28 215.085 70.36 214.157 70.36ZM216.125 63.016C216.061 62.392 215.805 61.904 215.357 61.552C214.909 61.2 214.293 61.024 213.509 61.024C212.741 61.024 212.133 61.208 211.685 61.576C211.237 61.928 210.981 62.408 210.917 63.016H216.125ZM221.779 52.264H226.003V70H221.779V52.264ZM228.154 58.48H232.234V59.632C233.306 58.624 234.666 58.12 236.314 58.12C237.514 58.12 238.578 58.376 239.506 58.888C240.434 59.384 241.154 60.096 241.666 61.024C242.178 61.936 242.434 63 242.434 64.216C242.434 65.416 242.178 66.488 241.666 67.432C241.154 68.36 240.434 69.08 239.506 69.592C238.594 70.104 237.53 70.36 236.314 70.36C235.546 70.36 234.81 70.24 234.106 70C233.418 69.776 232.842 69.464 232.378 69.064V75.256H228.154V58.48ZM235.21 67.072C236.074 67.072 236.77 66.816 237.298 66.304C237.826 65.792 238.09 65.096 238.09 64.216C238.09 63.336 237.826 62.648 237.298 62.152C236.77 61.64 236.074 61.384 235.21 61.384C234.57 61.384 233.994 61.552 233.482 61.888C232.97 62.208 232.602 62.648 232.378 63.208V65.248C232.602 65.808 232.97 66.256 233.482 66.592C233.994 66.912 234.57 67.072 235.21 67.072ZM246.227 63.976C246.227 62.344 246.875 61.072 248.171 60.16L248.795 59.728C249.387 59.344 249.795 59.032 250.019 58.792C250.259 58.536 250.379 58.224 250.379 57.856C250.379 56.928 249.603 56.464 248.051 56.464C247.331 56.464 246.587 56.56 245.819 56.752C245.051 56.944 244.323 57.216 243.635 57.568V53.872C245.107 53.2 246.755 52.864 248.579 52.864C250.547 52.864 252.107 53.28 253.259 54.112C254.411 54.928 254.987 56.064 254.987 57.52C254.987 58.336 254.803 59 254.435 59.512C254.067 60.008 253.443 60.568 252.563 61.192C251.971 61.624 251.539 61.96 251.267 62.2C250.995 62.424 250.787 62.68 250.643 62.968C250.515 63.256 250.451 63.608 250.451 64.024V64.48H246.227V63.976ZM248.315 70.36C247.675 70.36 247.139 70.152 246.707 69.736C246.291 69.304 246.083 68.776 246.083 68.152C246.083 67.512 246.291 66.984 246.707 66.568C247.139 66.152 247.675 65.944 248.315 65.944C248.939 65.944 249.467 66.16 249.899 66.592C250.347 67.008 250.571 67.528 250.571 68.152C250.571 68.776 250.347 69.304 249.899 69.736C249.467 70.152 248.939 70.36 248.315 70.36Z" fill="#0F1745"/>
<path d="M74.0981 126.21C73.0901 126.21 72.1941 126 71.4101 125.58C70.6261 125.16 70.0148 124.567 69.5761 123.802C69.1374 123.027 68.9181 122.131 68.9181 121.114C68.9181 120.097 69.1374 119.201 69.5761 118.426C70.0148 117.651 70.6261 117.054 71.4101 116.634C72.1941 116.214 73.0901 116.004 74.0981 116.004C75.4421 116.004 76.5668 116.345 77.4721 117.026V118.398C76.6601 117.679 75.5774 117.32 74.2241 117.32C73.4681 117.32 72.7961 117.474 72.2081 117.782C71.6294 118.09 71.1768 118.533 70.8501 119.112C70.5234 119.681 70.3601 120.349 70.3601 121.114C70.3601 121.879 70.5234 122.551 70.8501 123.13C71.1861 123.709 71.6434 124.152 72.2221 124.46C72.8101 124.768 73.4774 124.922 74.2241 124.922C74.9148 124.922 75.5308 124.833 76.0721 124.656C76.6228 124.469 77.1314 124.175 77.5981 123.774V125.16C76.7581 125.86 75.5914 126.21 74.0981 126.21ZM81.3405 126.21C80.5285 126.21 79.8751 126.005 79.3805 125.594C78.8951 125.174 78.6525 124.609 78.6525 123.9C78.6525 123.153 78.8858 122.579 79.3525 122.178C79.8285 121.767 80.5005 121.562 81.3685 121.562C82.2925 121.562 83.0765 121.749 83.7205 122.122V121.772C83.7205 121.24 83.5571 120.848 83.2305 120.596C82.9131 120.335 82.4091 120.204 81.7185 120.204C81.3078 120.204 80.9065 120.246 80.5145 120.33C80.1318 120.405 79.7865 120.512 79.4785 120.652V119.504C79.7585 119.373 80.1225 119.271 80.5705 119.196C81.0185 119.112 81.4525 119.07 81.8725 119.07C82.9831 119.07 83.8045 119.317 84.3365 119.812C84.8778 120.297 85.1485 120.974 85.1485 121.842V126H83.8185V125.244C83.5291 125.561 83.1838 125.804 82.7825 125.972C82.3905 126.131 81.9098 126.21 81.3405 126.21ZM81.6905 125.132C82.1385 125.132 82.5445 125.043 82.9085 124.866C83.2725 124.689 83.5431 124.441 83.7205 124.124V123.214C83.1138 122.822 82.4371 122.626 81.6905 122.626C81.1491 122.626 80.7431 122.733 80.4725 122.948C80.2111 123.153 80.0805 123.471 80.0805 123.9C80.0805 124.721 80.6171 125.132 81.6905 125.132ZM86.9032 115.654H88.3172V126H86.9032V115.654ZM90.1434 115.654H91.5574V126H90.1434V115.654ZM101.239 126.21C100.334 126.21 99.6479 125.967 99.1813 125.482C98.7239 124.997 98.4953 124.348 98.4953 123.536V119.28H99.9093V123.48C99.9093 124.553 100.446 125.09 101.519 125.09C102.462 125.09 103.199 124.665 103.731 123.816V119.28H105.145V126H103.773V125.048C103.456 125.449 103.078 125.743 102.639 125.93C102.21 126.117 101.743 126.21 101.239 126.21ZM109.438 126.21C108.971 126.21 108.476 126.149 107.954 126.028C107.431 125.916 107.02 125.762 106.722 125.566V124.362C107.086 124.577 107.506 124.754 107.982 124.894C108.458 125.025 108.92 125.09 109.368 125.09C109.872 125.09 110.24 125.029 110.474 124.908C110.707 124.787 110.824 124.591 110.824 124.32C110.824 124.115 110.768 123.951 110.656 123.83C110.553 123.699 110.371 123.583 110.11 123.48C109.858 123.377 109.475 123.256 108.962 123.116C108.411 122.957 107.972 122.799 107.646 122.64C107.328 122.472 107.086 122.262 106.918 122.01C106.759 121.758 106.68 121.431 106.68 121.03C106.68 120.386 106.932 119.901 107.436 119.574C107.949 119.238 108.635 119.07 109.494 119.07C109.942 119.07 110.38 119.112 110.81 119.196C111.239 119.28 111.584 119.397 111.846 119.546V120.722C111.575 120.563 111.239 120.437 110.838 120.344C110.446 120.251 110.044 120.204 109.634 120.204C109.139 120.204 108.761 120.265 108.5 120.386C108.238 120.507 108.108 120.722 108.108 121.03C108.108 121.226 108.164 121.385 108.276 121.506C108.388 121.627 108.565 121.735 108.808 121.828C109.06 121.912 109.456 122.024 109.998 122.164C110.847 122.397 111.435 122.673 111.762 122.99C112.098 123.307 112.266 123.746 112.266 124.306C112.266 124.885 112.028 125.347 111.552 125.692C111.076 126.037 110.371 126.21 109.438 126.21ZM119.817 117.964C119.584 117.964 119.388 117.885 119.229 117.726C119.07 117.567 118.991 117.371 118.991 117.138C118.991 116.905 119.07 116.709 119.229 116.55C119.388 116.391 119.584 116.312 119.817 116.312C120.06 116.312 120.26 116.391 120.419 116.55C120.587 116.709 120.671 116.905 120.671 117.138C120.671 117.371 120.587 117.567 120.419 117.726C120.26 117.885 120.06 117.964 119.817 117.964ZM119.103 119.28H120.545V126H119.103V119.28ZM122.953 120.372H121.931V119.28H122.953V117.964C122.953 117.189 123.172 116.601 123.611 116.2C124.05 115.789 124.638 115.584 125.375 115.584C125.758 115.584 126.117 115.64 126.453 115.752V116.928C126.192 116.807 125.921 116.746 125.641 116.746C125.202 116.746 124.88 116.853 124.675 117.068C124.47 117.273 124.367 117.6 124.367 118.048V119.28H126.047V120.372H124.367V126H122.953V120.372ZM134.036 128.772C133.532 128.772 133.112 128.721 132.776 128.618V127.512C133.019 127.605 133.318 127.652 133.672 127.652C133.999 127.652 134.256 127.568 134.442 127.4C134.629 127.241 134.797 126.98 134.946 126.616L135.268 125.832L132.328 119.28H133.784L136.024 124.446L138.11 119.28H139.566L136.542 126.756C136.262 127.456 135.926 127.965 135.534 128.282C135.152 128.609 134.652 128.772 134.036 128.772ZM143.451 126.21C142.695 126.21 142.028 126.07 141.449 125.79C140.88 125.501 140.432 125.09 140.105 124.558C139.788 124.017 139.629 123.382 139.629 122.654C139.629 121.935 139.788 121.305 140.105 120.764C140.422 120.223 140.87 119.807 141.449 119.518C142.028 119.219 142.695 119.07 143.451 119.07C144.207 119.07 144.874 119.219 145.453 119.518C146.032 119.807 146.48 120.223 146.797 120.764C147.124 121.305 147.287 121.935 147.287 122.654C147.287 123.382 147.124 124.017 146.797 124.558C146.48 125.09 146.032 125.501 145.453 125.79C144.874 126.07 144.207 126.21 143.451 126.21ZM143.451 125.09C144.179 125.09 144.758 124.866 145.187 124.418C145.616 123.97 145.831 123.382 145.831 122.654C145.831 121.898 145.616 121.301 145.187 120.862C144.758 120.423 144.179 120.204 143.451 120.204C142.723 120.204 142.144 120.423 141.715 120.862C141.286 121.301 141.071 121.898 141.071 122.654C141.071 123.382 141.286 123.97 141.715 124.418C142.144 124.866 142.723 125.09 143.451 125.09ZM151.497 126.21C150.592 126.21 149.906 125.967 149.439 125.482C148.982 124.997 148.753 124.348 148.753 123.536V119.28H150.167V123.48C150.167 124.553 150.704 125.09 151.777 125.09C152.72 125.09 153.457 124.665 153.989 123.816V119.28H155.403V126H154.031V125.048C153.714 125.449 153.336 125.743 152.897 125.93C152.468 126.117 152.001 126.21 151.497 126.21ZM165.941 126.21C165.195 126.21 164.532 126.07 163.953 125.79C163.375 125.51 162.922 125.104 162.595 124.572C162.278 124.031 162.119 123.391 162.119 122.654C162.119 121.917 162.278 121.282 162.595 120.75C162.922 120.209 163.375 119.793 163.953 119.504C164.541 119.215 165.213 119.07 165.969 119.07C166.996 119.07 167.817 119.271 168.433 119.672V120.834C167.827 120.414 167.052 120.204 166.109 120.204C165.344 120.204 164.723 120.414 164.247 120.834C163.781 121.245 163.547 121.851 163.547 122.654C163.547 123.457 163.781 124.063 164.247 124.474C164.714 124.885 165.325 125.09 166.081 125.09C167.024 125.09 167.836 124.866 168.517 124.418V125.566C168.191 125.79 167.817 125.953 167.397 126.056C166.987 126.159 166.501 126.21 165.941 126.21ZM172.395 126.21C171.583 126.21 170.93 126.005 170.435 125.594C169.95 125.174 169.707 124.609 169.707 123.9C169.707 123.153 169.94 122.579 170.407 122.178C170.883 121.767 171.555 121.562 172.423 121.562C173.347 121.562 174.131 121.749 174.775 122.122V121.772C174.775 121.24 174.612 120.848 174.285 120.596C173.968 120.335 173.464 120.204 172.773 120.204C172.362 120.204 171.961 120.246 171.569 120.33C171.186 120.405 170.841 120.512 170.533 120.652V119.504C170.813 119.373 171.177 119.271 171.625 119.196C172.073 119.112 172.507 119.07 172.927 119.07C174.038 119.07 174.859 119.317 175.391 119.812C175.932 120.297 176.203 120.974 176.203 121.842V126H174.873V125.244C174.584 125.561 174.238 125.804 173.837 125.972C173.445 126.131 172.964 126.21 172.395 126.21ZM172.745 125.132C173.193 125.132 173.599 125.043 173.963 124.866C174.327 124.689 174.598 124.441 174.775 124.124V123.214C174.168 122.822 173.492 122.626 172.745 122.626C172.204 122.626 171.798 122.733 171.527 122.948C171.266 123.153 171.135 123.471 171.135 123.9C171.135 124.721 171.672 125.132 172.745 125.132ZM177.958 119.28H179.33V120.246C179.647 119.845 180.035 119.551 180.492 119.364C180.959 119.168 181.444 119.07 181.948 119.07C182.844 119.07 183.511 119.308 183.95 119.784C184.389 120.26 184.608 120.899 184.608 121.702V126H183.194V121.842C183.194 120.75 182.671 120.204 181.626 120.204C181.178 120.204 180.758 120.311 180.366 120.526C179.983 120.731 179.652 121.049 179.372 121.478V126H177.958V119.28ZM186.996 116.004H188.396L187.29 118.734H186.072L186.996 116.004ZM192.524 126.21C191.843 126.21 191.316 126.014 190.942 125.622C190.578 125.23 190.396 124.675 190.396 123.956V120.372H189.374V119.28H190.396V117.264H191.824V119.28H193.476V120.372H191.824V123.858C191.824 124.306 191.908 124.623 192.076 124.81C192.254 124.997 192.571 125.09 193.028 125.09C193.299 125.09 193.57 125.029 193.84 124.908V126.028C193.486 126.149 193.047 126.21 192.524 126.21ZM200.814 120.372H199.792V119.28H200.814V118.006C200.814 117.231 201.062 116.634 201.556 116.214C202.051 115.794 202.667 115.584 203.404 115.584C203.778 115.584 204.142 115.64 204.496 115.752V116.9C204.235 116.797 203.964 116.746 203.684 116.746C203.208 116.746 202.844 116.863 202.592 117.096C202.35 117.32 202.228 117.651 202.228 118.09V119.28H206.764V126H205.35V120.372H202.228V126H200.814V120.372ZM206.05 117.964C205.808 117.964 205.607 117.885 205.448 117.726C205.29 117.567 205.21 117.371 205.21 117.138C205.21 116.905 205.29 116.709 205.448 116.55C205.616 116.391 205.817 116.312 206.05 116.312C206.284 116.312 206.48 116.391 206.638 116.55C206.806 116.709 206.89 116.905 206.89 117.138C206.89 117.371 206.806 117.567 206.638 117.726C206.48 117.885 206.284 117.964 206.05 117.964ZM208.706 119.28H210.078V120.246C210.395 119.845 210.783 119.551 211.24 119.364C211.707 119.168 212.192 119.07 212.696 119.07C213.592 119.07 214.259 119.308 214.698 119.784C215.137 120.26 215.356 120.899 215.356 121.702V126H213.942V121.842C213.942 120.75 213.419 120.204 212.374 120.204C211.926 120.204 211.506 120.311 211.114 120.526C210.731 120.731 210.4 121.049 210.12 121.478V126H208.706V119.28ZM220.348 126.21C219.676 126.21 219.07 126.065 218.528 125.776C217.996 125.477 217.576 125.062 217.268 124.53C216.97 123.989 216.82 123.363 216.82 122.654C216.82 121.954 216.97 121.333 217.268 120.792C217.576 120.251 217.996 119.831 218.528 119.532C219.07 119.224 219.676 119.07 220.348 119.07C221.562 119.07 222.481 119.439 223.106 120.176V115.654H224.52V126H223.148V125.02C222.775 125.431 222.364 125.734 221.916 125.93C221.478 126.117 220.955 126.21 220.348 126.21ZM220.67 125.09C221.249 125.09 221.753 124.941 222.182 124.642C222.621 124.334 222.929 123.923 223.106 123.41V121.898C222.948 121.385 222.644 120.974 222.196 120.666C221.758 120.358 221.249 120.204 220.67 120.204C220.213 120.204 219.798 120.307 219.424 120.512C219.06 120.717 218.771 121.007 218.556 121.38C218.351 121.753 218.248 122.178 218.248 122.654C218.248 123.13 218.351 123.555 218.556 123.928C218.771 124.301 219.06 124.591 219.424 124.796C219.798 124.992 220.213 125.09 220.67 125.09ZM234.114 126.21C233.433 126.21 232.906 126.014 232.532 125.622C232.168 125.23 231.986 124.675 231.986 123.956V120.372H230.964V119.28H231.986V117.264H233.414V119.28H235.066V120.372H233.414V123.858C233.414 124.306 233.498 124.623 233.666 124.81C233.844 124.997 234.161 125.09 234.618 125.09C234.889 125.09 235.16 125.029 235.43 124.908V126.028C235.076 126.149 234.637 126.21 234.114 126.21ZM236.761 115.654H238.175V120.204C238.819 119.448 239.677 119.07 240.751 119.07C241.647 119.07 242.314 119.308 242.753 119.784C243.191 120.26 243.411 120.899 243.411 121.702V126H241.997V121.842C241.997 120.75 241.474 120.204 240.429 120.204C239.981 120.204 239.561 120.311 239.169 120.526C238.786 120.731 238.455 121.049 238.175 121.478V126H236.761V115.654ZM248.851 126.21C247.61 126.21 246.634 125.902 245.925 125.286C245.225 124.661 244.875 123.783 244.875 122.654C244.875 121.553 245.188 120.68 245.813 120.036C246.448 119.392 247.348 119.07 248.515 119.07C249.29 119.07 249.948 119.219 250.489 119.518C251.03 119.807 251.436 120.213 251.707 120.736C251.987 121.249 252.127 121.837 252.127 122.5V123.2H246.219C246.266 123.835 246.532 124.311 247.017 124.628C247.512 124.936 248.179 125.09 249.019 125.09C249.448 125.09 249.882 125.053 250.321 124.978C250.76 124.894 251.147 124.787 251.483 124.656V125.79C251.184 125.911 250.788 126.009 250.293 126.084C249.808 126.168 249.327 126.21 248.851 126.21ZM250.797 122.206C250.778 121.571 250.568 121.081 250.167 120.736C249.775 120.381 249.215 120.204 248.487 120.204C247.778 120.204 247.227 120.386 246.835 120.75C246.443 121.114 246.238 121.599 246.219 122.206H250.797ZM261.332 126.21C260.866 126.21 260.371 126.149 259.848 126.028C259.326 125.916 258.915 125.762 258.616 125.566V124.362C258.98 124.577 259.4 124.754 259.876 124.894C260.352 125.025 260.814 125.09 261.262 125.09C261.766 125.09 262.135 125.029 262.368 124.908C262.602 124.787 262.718 124.591 262.718 124.32C262.718 124.115 262.662 123.951 262.55 123.83C262.448 123.699 262.266 123.583 262.004 123.48C261.752 123.377 261.37 123.256 260.856 123.116C260.306 122.957 259.867 122.799 259.54 122.64C259.223 122.472 258.98 122.262 258.812 122.01C258.654 121.758 258.574 121.431 258.574 121.03C258.574 120.386 258.826 119.901 259.33 119.574C259.844 119.238 260.53 119.07 261.388 119.07C261.836 119.07 262.275 119.112 262.704 119.196C263.134 119.28 263.479 119.397 263.74 119.546V120.722C263.47 120.563 263.134 120.437 262.732 120.344C262.34 120.251 261.939 120.204 261.528 120.204C261.034 120.204 260.656 120.265 260.394 120.386C260.133 120.507 260.002 120.722 260.002 121.03C260.002 121.226 260.058 121.385 260.17 121.506C260.282 121.627 260.46 121.735 260.702 121.828C260.954 121.912 261.351 122.024 261.892 122.164C262.742 122.397 263.33 122.673 263.656 122.99C263.992 123.307 264.16 123.746 264.16 124.306C264.16 124.885 263.922 125.347 263.446 125.692C262.97 126.037 262.266 126.21 261.332 126.21ZM269.4 126.21C268.159 126.21 267.183 125.902 266.474 125.286C265.774 124.661 265.424 123.783 265.424 122.654C265.424 121.553 265.737 120.68 266.362 120.036C266.997 119.392 267.897 119.07 269.064 119.07C269.839 119.07 270.497 119.219 271.038 119.518C271.579 119.807 271.985 120.213 272.256 120.736C272.536 121.249 272.676 121.837 272.676 122.5V123.2H266.768C266.815 123.835 267.081 124.311 267.566 124.628C268.061 124.936 268.728 125.09 269.568 125.09C269.997 125.09 270.431 125.053 270.87 124.978C271.309 124.894 271.696 124.787 272.032 124.656V125.79C271.733 125.911 271.337 126.009 270.842 126.084C270.357 126.168 269.876 126.21 269.4 126.21ZM271.346 122.206C271.327 121.571 271.117 121.081 270.716 120.736C270.324 120.381 269.764 120.204 269.036 120.204C268.327 120.204 267.776 120.386 267.384 120.75C266.992 121.114 266.787 121.599 266.768 122.206H271.346ZM274.222 119.28H275.594V120.484C275.874 120.073 276.266 119.77 276.77 119.574C277.283 119.378 277.876 119.28 278.548 119.28V120.386C277.829 120.386 277.213 120.503 276.7 120.736C276.186 120.969 275.832 121.338 275.636 121.842V126H274.222V119.28ZM279.465 119.28H280.963L282.937 124.11L284.911 119.28H286.409L283.553 126H282.321L279.465 119.28ZM288.774 117.964C288.541 117.964 288.345 117.885 288.186 117.726C288.027 117.567 287.948 117.371 287.948 117.138C287.948 116.905 288.027 116.709 288.186 116.55C288.345 116.391 288.541 116.312 288.774 116.312C289.017 116.312 289.217 116.391 289.376 116.55C289.544 116.709 289.628 116.905 289.628 117.138C289.628 117.371 289.544 117.567 289.376 117.726C289.217 117.885 289.017 117.964 288.774 117.964ZM288.06 119.28H289.502V126H288.06V119.28ZM294.99 126.21C294.243 126.21 293.581 126.07 293.002 125.79C292.423 125.51 291.971 125.104 291.644 124.572C291.327 124.031 291.168 123.391 291.168 122.654C291.168 121.917 291.327 121.282 291.644 120.75C291.971 120.209 292.423 119.793 293.002 119.504C293.59 119.215 294.262 119.07 295.018 119.07C296.045 119.07 296.866 119.271 297.482 119.672V120.834C296.875 120.414 296.101 120.204 295.158 120.204C294.393 120.204 293.772 120.414 293.296 120.834C292.829 121.245 292.596 121.851 292.596 122.654C292.596 123.457 292.829 124.063 293.296 124.474C293.763 124.885 294.374 125.09 295.13 125.09C296.073 125.09 296.885 124.866 297.566 124.418V125.566C297.239 125.79 296.866 125.953 296.446 126.056C296.035 126.159 295.55 126.21 294.99 126.21ZM302.8 126.21C301.559 126.21 300.584 125.902 299.874 125.286C299.174 124.661 298.824 123.783 298.824 122.654C298.824 121.553 299.137 120.68 299.762 120.036C300.397 119.392 301.298 119.07 302.464 119.07C303.239 119.07 303.897 119.219 304.438 119.518C304.98 119.807 305.386 120.213 305.656 120.736C305.936 121.249 306.076 121.837 306.076 122.5V123.2H300.168C300.215 123.835 300.481 124.311 300.966 124.628C301.461 124.936 302.128 125.09 302.968 125.09C303.398 125.09 303.832 125.053 304.27 124.978C304.709 124.894 305.096 124.787 305.432 124.656V125.79C305.134 125.911 304.737 126.009 304.242 126.084C303.757 126.168 303.276 126.21 302.8 126.21ZM304.746 122.206C304.728 121.571 304.518 121.081 304.116 120.736C303.724 120.381 303.164 120.204 302.436 120.204C301.727 120.204 301.176 120.386 300.784 120.75C300.392 121.114 300.187 121.599 300.168 122.206H304.746ZM124.548 148.772C124.044 148.772 123.624 148.721 123.288 148.618V147.512C123.531 147.605 123.829 147.652 124.184 147.652C124.511 147.652 124.767 147.568 124.954 147.4C125.141 147.241 125.309 146.98 125.458 146.616L125.78 145.832L122.84 139.28H124.296L126.536 144.446L128.622 139.28H130.078L127.054 146.756C126.774 147.456 126.438 147.965 126.046 148.282C125.663 148.609 125.164 148.772 124.548 148.772ZM133.963 146.21C133.207 146.21 132.539 146.07 131.961 145.79C131.391 145.501 130.943 145.09 130.617 144.558C130.299 144.017 130.141 143.382 130.141 142.654C130.141 141.935 130.299 141.305 130.617 140.764C130.934 140.223 131.382 139.807 131.961 139.518C132.539 139.219 133.207 139.07 133.963 139.07C134.719 139.07 135.386 139.219 135.965 139.518C136.543 139.807 136.991 140.223 137.309 140.764C137.635 141.305 137.799 141.935 137.799 142.654C137.799 143.382 137.635 144.017 137.309 144.558C136.991 145.09 136.543 145.501 135.965 145.79C135.386 146.07 134.719 146.21 133.963 146.21ZM133.963 145.09C134.691 145.09 135.269 144.866 135.699 144.418C136.128 143.97 136.343 143.382 136.343 142.654C136.343 141.898 136.128 141.301 135.699 140.862C135.269 140.423 134.691 140.204 133.963 140.204C133.235 140.204 132.656 140.423 132.227 140.862C131.797 141.301 131.583 141.898 131.583 142.654C131.583 143.382 131.797 143.97 132.227 144.418C132.656 144.866 133.235 145.09 133.963 145.09ZM142.009 146.21C141.103 146.21 140.417 145.967 139.951 145.482C139.493 144.997 139.265 144.348 139.265 143.536V139.28H140.679V143.48C140.679 144.553 141.215 145.09 142.289 145.09C143.231 145.09 143.969 144.665 144.501 143.816V139.28H145.915V146H144.543V145.048C144.225 145.449 143.847 145.743 143.409 145.93C142.979 146.117 142.513 146.21 142.009 146.21ZM155.319 146.21C154.507 146.21 153.854 146.005 153.359 145.594C152.874 145.174 152.631 144.609 152.631 143.9C152.631 143.153 152.864 142.579 153.331 142.178C153.807 141.767 154.479 141.562 155.347 141.562C156.271 141.562 157.055 141.749 157.699 142.122V141.772C157.699 141.24 157.536 140.848 157.209 140.596C156.892 140.335 156.388 140.204 155.697 140.204C155.286 140.204 154.885 140.246 154.493 140.33C154.11 140.405 153.765 140.512 153.457 140.652V139.504C153.737 139.373 154.101 139.271 154.549 139.196C154.997 139.112 155.431 139.07 155.851 139.07C156.962 139.07 157.783 139.317 158.315 139.812C158.856 140.297 159.127 140.974 159.127 141.842V146H157.797V145.244C157.508 145.561 157.162 145.804 156.761 145.972C156.369 146.131 155.888 146.21 155.319 146.21ZM155.669 145.132C156.117 145.132 156.523 145.043 156.887 144.866C157.251 144.689 157.522 144.441 157.699 144.124V143.214C157.092 142.822 156.416 142.626 155.669 142.626C155.128 142.626 154.722 142.733 154.451 142.948C154.19 143.153 154.059 143.471 154.059 143.9C154.059 144.721 154.596 145.132 155.669 145.132ZM160.882 139.28H162.254V140.484C162.534 140.073 162.926 139.77 163.43 139.574C163.943 139.378 164.536 139.28 165.208 139.28V140.386C164.489 140.386 163.873 140.503 163.36 140.736C162.846 140.969 162.492 141.338 162.296 141.842V146H160.882V139.28ZM169.746 146.21C168.504 146.21 167.529 145.902 166.82 145.286C166.12 144.661 165.77 143.783 165.77 142.654C165.77 141.553 166.082 140.68 166.708 140.036C167.342 139.392 168.243 139.07 169.41 139.07C170.184 139.07 170.842 139.219 171.384 139.518C171.925 139.807 172.331 140.213 172.602 140.736C172.882 141.249 173.022 141.837 173.022 142.5V143.2H167.114C167.16 143.835 167.426 144.311 167.912 144.628C168.406 144.936 169.074 145.09 169.914 145.09C170.343 145.09 170.777 145.053 171.216 144.978C171.654 144.894 172.042 144.787 172.378 144.656V145.79C172.079 145.911 171.682 146.009 171.188 146.084C170.702 146.168 170.222 146.21 169.746 146.21ZM171.692 142.206C171.673 141.571 171.463 141.081 171.062 140.736C170.67 140.381 170.11 140.204 169.382 140.204C168.672 140.204 168.122 140.386 167.73 140.75C167.338 141.114 167.132 141.599 167.114 142.206H171.692ZM179.749 135.654H181.163V146H179.749V135.654ZM186.531 146.21C185.775 146.21 185.108 146.07 184.529 145.79C183.96 145.501 183.512 145.09 183.185 144.558C182.868 144.017 182.709 143.382 182.709 142.654C182.709 141.935 182.868 141.305 183.185 140.764C183.502 140.223 183.95 139.807 184.529 139.518C185.108 139.219 185.775 139.07 186.531 139.07C187.287 139.07 187.954 139.219 188.533 139.518C189.112 139.807 189.56 140.223 189.877 140.764C190.204 141.305 190.367 141.935 190.367 142.654C190.367 143.382 190.204 144.017 189.877 144.558C189.56 145.09 189.112 145.501 188.533 145.79C187.954 146.07 187.287 146.21 186.531 146.21ZM186.531 145.09C187.259 145.09 187.838 144.866 188.267 144.418C188.696 143.97 188.911 143.382 188.911 142.654C188.911 141.898 188.696 141.301 188.267 140.862C187.838 140.423 187.259 140.204 186.531 140.204C185.803 140.204 185.224 140.423 184.795 140.862C184.366 141.301 184.151 141.898 184.151 142.654C184.151 143.382 184.366 143.97 184.795 144.418C185.224 144.866 185.803 145.09 186.531 145.09ZM195.09 146.21C194.334 146.21 193.666 146.07 193.088 145.79C192.518 145.501 192.07 145.09 191.744 144.558C191.426 144.017 191.268 143.382 191.268 142.654C191.268 141.935 191.426 141.305 191.744 140.764C192.061 140.223 192.509 139.807 193.088 139.518C193.666 139.219 194.334 139.07 195.09 139.07C195.846 139.07 196.513 139.219 197.092 139.518C197.67 139.807 198.118 140.223 198.436 140.764C198.762 141.305 198.926 141.935 198.926 142.654C198.926 143.382 198.762 144.017 198.436 144.558C198.118 145.09 197.67 145.501 197.092 145.79C196.513 146.07 195.846 146.21 195.09 146.21ZM195.09 145.09C195.818 145.09 196.396 144.866 196.826 144.418C197.255 143.97 197.47 143.382 197.47 142.654C197.47 141.898 197.255 141.301 196.826 140.862C196.396 140.423 195.818 140.204 195.09 140.204C194.362 140.204 193.783 140.423 193.354 140.862C192.924 141.301 192.71 141.898 192.71 142.654C192.71 143.382 192.924 143.97 193.354 144.418C193.783 144.866 194.362 145.09 195.09 145.09ZM200.462 135.654H201.876V146H200.462V135.654ZM201.89 142.598L204.984 139.28H206.706L203.598 142.598L207.028 146H205.306L201.89 142.598ZM209.258 137.964C209.025 137.964 208.829 137.885 208.67 137.726C208.512 137.567 208.432 137.371 208.432 137.138C208.432 136.905 208.512 136.709 208.67 136.55C208.829 136.391 209.025 136.312 209.258 136.312C209.501 136.312 209.702 136.391 209.86 136.55C210.028 136.709 210.112 136.905 210.112 137.138C210.112 137.371 210.028 137.567 209.86 137.726C209.702 137.885 209.501 137.964 209.258 137.964ZM208.544 139.28H209.986V146H208.544V139.28ZM211.932 139.28H213.304V140.246C213.622 139.845 214.009 139.551 214.466 139.364C214.933 139.168 215.418 139.07 215.922 139.07C216.818 139.07 217.486 139.308 217.924 139.784C218.363 140.26 218.582 140.899 218.582 141.702V146H217.168V141.842C217.168 140.75 216.646 140.204 215.6 140.204C215.152 140.204 214.732 140.311 214.34 140.526C213.958 140.731 213.626 141.049 213.346 141.478V146H211.932V139.28ZM223.841 149.22C223.384 149.22 222.936 149.183 222.497 149.108C222.068 149.033 221.704 148.926 221.405 148.786V147.624C222.105 147.941 222.917 148.1 223.841 148.1C224.709 148.1 225.339 147.909 225.731 147.526C226.132 147.153 226.333 146.583 226.333 145.818V145.104C225.717 145.841 224.812 146.21 223.617 146.21C222.936 146.21 222.324 146.061 221.783 145.762C221.242 145.463 220.817 145.043 220.509 144.502C220.201 143.961 220.047 143.34 220.047 142.64C220.047 141.931 220.196 141.31 220.495 140.778C220.803 140.237 221.223 139.817 221.755 139.518C222.296 139.219 222.903 139.07 223.575 139.07C224.2 139.07 224.728 139.163 225.157 139.35C225.596 139.527 226.002 139.826 226.375 140.246V139.28H227.747V145.664C227.747 146.812 227.425 147.689 226.781 148.296C226.146 148.912 225.166 149.22 223.841 149.22ZM223.897 145.09C224.476 145.09 224.984 144.936 225.423 144.628C225.871 144.32 226.174 143.909 226.333 143.396V141.884C226.156 141.361 225.848 140.951 225.409 140.652C224.98 140.353 224.476 140.204 223.897 140.204C223.44 140.204 223.024 140.307 222.651 140.512C222.287 140.708 221.998 140.993 221.783 141.366C221.578 141.739 221.475 142.164 221.475 142.64C221.475 143.125 221.578 143.555 221.783 143.928C221.998 144.292 222.287 144.577 222.651 144.782C223.024 144.987 223.44 145.09 223.897 145.09ZM235.213 140.372H234.191V139.28H235.213V137.964C235.213 137.189 235.432 136.601 235.871 136.2C236.309 135.789 236.897 135.584 237.635 135.584C238.017 135.584 238.377 135.64 238.713 135.752V136.928C238.451 136.807 238.181 136.746 237.901 136.746C237.462 136.746 237.14 136.853 236.935 137.068C236.729 137.273 236.627 137.6 236.627 138.048V139.28H238.307V140.372H236.627V146H235.213V140.372ZM242.736 146.21C241.98 146.21 241.313 146.07 240.734 145.79C240.165 145.501 239.717 145.09 239.39 144.558C239.073 144.017 238.914 143.382 238.914 142.654C238.914 141.935 239.073 141.305 239.39 140.764C239.708 140.223 240.156 139.807 240.734 139.518C241.313 139.219 241.98 139.07 242.736 139.07C243.492 139.07 244.16 139.219 244.738 139.518C245.317 139.807 245.765 140.223 246.082 140.764C246.409 141.305 246.572 141.935 246.572 142.654C246.572 143.382 246.409 144.017 246.082 144.558C245.765 145.09 245.317 145.501 244.738 145.79C244.16 146.07 243.492 146.21 242.736 146.21ZM242.736 145.09C243.464 145.09 244.043 144.866 244.472 144.418C244.902 143.97 245.116 143.382 245.116 142.654C245.116 141.898 244.902 141.301 244.472 140.862C244.043 140.423 243.464 140.204 242.736 140.204C242.008 140.204 241.43 140.423 241 140.862C240.571 141.301 240.356 141.898 240.356 142.654C240.356 143.382 240.571 143.97 241 144.418C241.43 144.866 242.008 145.09 242.736 145.09ZM248.108 139.28H249.48V140.484C249.76 140.073 250.152 139.77 250.656 139.574C251.17 139.378 251.762 139.28 252.434 139.28V140.386C251.716 140.386 251.1 140.503 250.586 140.736C250.073 140.969 249.718 141.338 249.522 141.842V146H248.108V139.28Z" fill="#898989"/>
<rect x="16" y="183" width="343" height="44" rx="4" fill="#D74A88"/>
<path d="M169.796 210.21C168.769 210.21 167.859 210.005 167.066 209.594C166.273 209.174 165.657 208.581 165.218 207.816C164.779 207.041 164.56 206.141 164.56 205.114C164.56 204.087 164.779 203.191 165.218 202.426C165.657 201.651 166.273 201.054 167.066 200.634C167.859 200.214 168.769 200.004 169.796 200.004C171.149 200.004 172.279 200.326 173.184 200.97V202.664C172.372 201.973 171.294 201.628 169.95 201.628C169.231 201.628 168.601 201.773 168.06 202.062C167.519 202.342 167.099 202.743 166.8 203.266C166.501 203.789 166.352 204.405 166.352 205.114C166.352 205.823 166.501 206.439 166.8 206.962C167.108 207.485 167.533 207.891 168.074 208.18C168.615 208.46 169.241 208.6 169.95 208.6C170.641 208.6 171.257 208.516 171.798 208.348C172.339 208.171 172.839 207.891 173.296 207.508V209.202C172.437 209.874 171.271 210.21 169.796 210.21ZM176.956 210.21C176.154 210.21 175.496 210 174.982 209.58C174.469 209.151 174.212 208.577 174.212 207.858C174.212 207.111 174.455 206.528 174.94 206.108C175.426 205.688 176.107 205.478 176.984 205.478C177.834 205.478 178.566 205.651 179.182 205.996V205.814C179.182 205.338 179.033 204.993 178.734 204.778C178.445 204.563 177.974 204.456 177.32 204.456C176.91 204.456 176.504 204.498 176.102 204.582C175.701 204.657 175.346 204.764 175.038 204.904V203.518C175.318 203.387 175.692 203.28 176.158 203.196C176.634 203.112 177.092 203.07 177.53 203.07C178.697 203.07 179.56 203.322 180.12 203.826C180.68 204.321 180.96 205.011 180.96 205.898V210H179.294V209.342C179.005 209.622 178.674 209.837 178.3 209.986C177.936 210.135 177.488 210.21 176.956 210.21ZM177.39 208.922C177.782 208.922 178.137 208.847 178.454 208.698C178.772 208.539 179.014 208.325 179.182 208.054V207.312C178.669 206.948 178.081 206.766 177.418 206.766C176.476 206.766 176.004 207.13 176.004 207.858C176.004 208.213 176.121 208.479 176.354 208.656C176.597 208.833 176.942 208.922 177.39 208.922ZM182.572 199.654H184.336V210H182.572V199.654ZM186.018 199.654H187.782V210H186.018V199.654ZM198.624 210.21C197.243 210.21 196.197 209.851 195.488 209.132C194.788 208.404 194.438 207.424 194.438 206.192V200.214H196.216V206.22C196.216 206.995 196.431 207.587 196.86 207.998C197.299 208.399 197.887 208.6 198.624 208.6C199.352 208.6 199.931 208.399 200.36 207.998C200.799 207.587 201.018 206.995 201.018 206.22V200.214H202.796V206.192C202.796 207.424 202.446 208.404 201.746 209.132C201.046 209.851 200.005 210.21 198.624 210.21ZM206.532 210.21C206.047 210.21 205.529 210.154 204.978 210.042C204.428 209.93 203.998 209.776 203.69 209.58V208.082C204.054 208.306 204.488 208.488 204.992 208.628C205.496 208.759 205.972 208.824 206.42 208.824C206.868 208.824 207.195 208.787 207.4 208.712C207.606 208.628 207.708 208.479 207.708 208.264C207.708 208.096 207.652 207.961 207.54 207.858C207.438 207.746 207.265 207.648 207.022 207.564C206.789 207.471 206.425 207.359 205.93 207.228C205.37 207.069 204.927 206.906 204.6 206.738C204.283 206.57 204.04 206.36 203.872 206.108C203.714 205.847 203.634 205.511 203.634 205.1C203.634 204.428 203.9 203.924 204.432 203.588C204.964 203.243 205.683 203.07 206.588 203.07C207.055 203.07 207.517 203.117 207.974 203.21C208.441 203.294 208.805 203.415 209.066 203.574V205.016C208.786 204.848 208.446 204.713 208.044 204.61C207.643 204.507 207.232 204.456 206.812 204.456C206.355 204.456 206.01 204.503 205.776 204.596C205.543 204.68 205.426 204.848 205.426 205.1C205.426 205.268 205.487 205.403 205.608 205.506C205.739 205.599 205.907 205.683 206.112 205.758C206.318 205.823 206.691 205.926 207.232 206.066C207.811 206.225 208.264 206.397 208.59 206.584C208.917 206.771 209.15 206.995 209.29 207.256C209.43 207.517 209.5 207.844 209.5 208.236C209.5 208.833 209.244 209.314 208.73 209.678C208.226 210.033 207.494 210.21 206.532 210.21Z" fill="white"/>
</svg>
