<svg width="21" height="24" viewBox="0 0 21 24" fill="none" xmlns="http://www.w3.org/2000/svg">
<path d="M5.77863 23.1864L6.19458 20.5444L5.26805 20.5229H0.84375L3.91841 1.02754C3.92756 0.967971 3.95782 0.913676 4.00366 0.874552C4.0495 0.835427 4.10787 0.814078 4.16814 0.814396H11.6281C14.1047 0.814396 15.8138 1.32975 16.7062 2.34695C17.1245 2.82414 17.3909 3.3228 17.5198 3.87156C17.655 4.44736 17.6573 5.1353 17.5253 5.97435L17.5158 6.03559V6.57322L17.9341 6.81022C18.2535 6.97202 18.5405 7.19088 18.7811 7.45601C19.139 7.864 19.3704 8.38254 19.4683 8.99732C19.5693 9.62959 19.5359 10.3819 19.3704 11.2337C19.1796 12.2135 18.871 13.0669 18.4542 13.7652C18.0865 14.3907 17.5922 14.9325 17.0028 15.3558C16.4493 15.7487 15.7916 16.0469 15.0479 16.2378C14.3274 16.4255 13.5058 16.5201 12.6048 16.5201H12.0242C11.609 16.5201 11.2058 16.6696 10.8893 16.9377C10.5732 17.2085 10.3635 17.5828 10.2976 17.9938L10.2538 18.2316L9.51897 22.8882L9.48556 23.0591C9.47681 23.1132 9.4617 23.1403 9.43944 23.1586C9.41786 23.1762 9.39095 23.186 9.36309 23.1864H5.77863Z" fill="#253B80"/>
<path d="M18.33 6.09763C18.3077 6.23999 18.2823 6.38553 18.2536 6.53505C17.2698 11.586 13.9041 13.3309 9.60547 13.3309H7.41678C6.89108 13.3309 6.4481 13.7127 6.36618 14.2312L5.24559 21.3381L4.92826 23.3526C4.91562 23.4325 4.92045 23.5142 4.94241 23.5921C4.96437 23.67 5.00295 23.7421 5.05548 23.8037C5.10801 23.8652 5.17325 23.9146 5.24671 23.9485C5.32017 23.9824 5.4001 24 5.481 24H9.3629C9.82259 24 10.2131 23.666 10.2855 23.2126L10.3236 23.0154L11.0545 18.3772L11.1014 18.1227C11.173 17.6678 11.5643 17.3337 12.024 17.3337H12.6046C16.3656 17.3337 19.3098 15.8067 20.1703 11.388C20.5298 9.5421 20.3437 8.0008 19.3925 6.91679C19.091 6.58146 18.731 6.30387 18.33 6.09763Z" fill="#179BD7"/>
<path d="M17.3009 5.68725C16.9868 5.59638 16.6672 5.52545 16.3441 5.4749C15.7058 5.37679 15.0606 5.32972 14.4147 5.33413H8.56762C8.3451 5.33396 8.12986 5.4134 7.9608 5.5581C7.79175 5.70279 7.68004 5.90319 7.64586 6.12308L6.402 14.0014L6.36621 14.2312C6.40496 13.9804 6.5322 13.7518 6.7249 13.5867C6.9176 13.4215 7.16304 13.3308 7.41681 13.3309H9.6055C13.9041 13.3309 17.2699 11.5852 18.2537 6.53505C18.2831 6.38553 18.3078 6.23999 18.33 6.09763C18.0704 5.96149 17.7999 5.84736 17.5212 5.75644C17.4481 5.7322 17.3747 5.70913 17.3009 5.68725Z" fill="#222D65"/>
<path d="M7.64602 6.12307C7.6799 5.90313 7.79155 5.70263 7.96069 5.55801C8.12983 5.41339 8.34524 5.33423 8.56778 5.33492H14.4149C15.1076 5.33492 15.7542 5.38026 16.3443 5.47569C16.7436 5.53845 17.1374 5.63232 17.5221 5.75644C17.8124 5.85267 18.082 5.9664 18.331 6.09762C18.6236 4.23104 18.3286 2.96013 17.3193 1.80932C16.2067 0.5424 14.1986 0 11.6289 0H4.16893C3.64403 0 3.19627 0.381748 3.11515 0.901083L0.00788127 20.5969C-0.00659186 20.6883 -0.00108533 20.7818 0.0240221 20.8709C0.0491295 20.96 0.0932419 21.0427 0.153325 21.1131C0.213408 21.1835 0.288036 21.2401 0.372075 21.279C0.456114 21.3178 0.547569 21.338 0.640151 21.3381H5.24578L6.40215 14.0014L7.64602 6.12307Z" fill="#253B80"/>
</svg>
